HIERARCHY
ROOT Hips
{
	OFFSET 51.080502 -7.664849 51.308601
	CHANNELS 6 Xposition Yposition Zposition Xrotation Yrotation Zrotation
	JOINT spine
	{
		OFFSET 0.000000 -0.507025 8.817039
		CHANNELS 3 Xrotation Yrotation Zrotation
		JOINT spine1
		{
			OFFSET 0.000000 -0.000002 10.776596
			CHANNELS 3 Xrotation Yrotation Zrotation
			JOINT spine2
			{
				OFFSET 0.000000 -0.000002 10.325897
				CHANNELS 3 Xrotation Yrotation Zrotation
				JOINT Neck
				{
					OFFSET 0.000000 -1.263954 26.511002
					CHANNELS 3 Xrotation Yrotation Zrotation
					JOINT Head
					{
						OFFSET 0.000000 -0.000002 8.009659
						CHANNELS 3 Xrotation Yrotation Zrotation
						End Site
						{
							OFFSET 0.000000 6.393857 19.387894
						}
					}
				}
				JOINT RightShoulder
				{
					OFFSET -4.347950 0.605420 11.151199
					CHANNELS 3 Xrotation Yrotation Zrotation
					JOINT RightArm
					{
						OFFSET 0.000000 -0.000002 14.625801
						CHANNELS 3 Xrotation Yrotation Zrotation
						JOINT RightArmRoll
						{
							OFFSET 0.000000 -0.000001 7.383400
							CHANNELS 3 Xrotation Yrotation Zrotation
							JOINT RightForeArm
							{
								OFFSET 0.000000 -0.000003 21.505203
								CHANNELS 3 Xrotation Yrotation Zrotation
								JOINT RightForeArmRoll
								{
									OFFSET 0.000000 -0.000001 8.285324
									CHANNELS 3 Xrotation Yrotation Zrotation
									JOINT RightHand
									{
										OFFSET 0.000000 -0.000003 16.626801
										CHANNELS 3 Xrotation Yrotation Zrotation
										End Site
										{
											OFFSET 0.000000 0.000000 0.100006
										}
									}
								}
							}
						}
					}
				}
				JOINT LeftShoulder
				{
					OFFSET 4.347950 0.605420 11.151199
					CHANNELS 3 Xrotation Yrotation Zrotation
					JOINT LeftArm
					{
						OFFSET 0.000000 -0.000002 14.625801
						CHANNELS 3 Xrotation Yrotation Zrotation
						JOINT LeftArmRoll
						{
							OFFSET 0.000000 -0.000001 7.383400
							CHANNELS 3 Xrotation Yrotation Zrotation
							JOINT LeftForeArm
							{
								OFFSET 0.000000 -0.000003 21.505203
								CHANNELS 3 Xrotation Yrotation Zrotation
								JOINT LeftForeArmRoll
								{
									OFFSET 0.000000 -0.000001 8.285324
									CHANNELS 3 Xrotation Yrotation Zrotation
									JOINT LeftHand
									{
										OFFSET 0.000000 -0.000003 16.626801
										CHANNELS 3 Xrotation Yrotation Zrotation
										End Site
										{
											OFFSET 0.000000 0.000000 0.100006
										}
									}
								}
							}
						}
					}
				}
			}
		}
	}
	JOINT RightUpLeg
	{
		OFFSET -7.815102 1.202170 -1.433090
		CHANNELS 3 Xrotation Yrotation Zrotation
		JOINT RightUpLegRoll
		{
			OFFSET 0.000000 -0.000003 19.495903
			CHANNELS 3 Xrotation Yrotation Zrotation
			JOINT RightLeg
			{
				OFFSET 0.000000 0.000004 -24.142700
				CHANNELS 3 Xrotation Yrotation Zrotation
				JOINT RightLegRoll
				{
					OFFSET 0.000000 -0.000004 24.221703
					CHANNELS 3 Xrotation Yrotation Zrotation
					JOINT RightFoot
					{
						OFFSET 0.000000 -0.000003 20.160500
						CHANNELS 3 Xrotation Yrotation Zrotation
						JOINT RightToeBase
						{
							OFFSET 0.000000 -0.000002 16.853203
							CHANNELS 3 Xrotation Yrotation Zrotation
							End Site
							{
								OFFSET 0.007145 0.940779 8.161873
							}
						}
					}
				}
			}
		}
	}
	JOINT LeftUpLeg
	{
		OFFSET 7.815102 1.202170 -1.433090
		CHANNELS 3 Xrotation Yrotation Zrotation
		JOINT LeftUpLegRoll
		{
			OFFSET 0.000000 -0.000003 19.496002
			CHANNELS 3 Xrotation Yrotation Zrotation
			JOINT LeftLeg
			{
				OFFSET 0.000000 -0.000004 24.142601
				CHANNELS 3 Xrotation Yrotation Zrotation
				JOINT LeftLegRoll
				{
					OFFSET 0.000000 -0.000004 24.445602
					CHANNELS 3 Xrotation Yrotation Zrotation
					JOINT LeftFoot
					{
						OFFSET 0.000000 -0.000003 19.936600
						CHANNELS 3 Xrotation Yrotation Zrotation
						JOINT LeftToeBase
						{
							OFFSET 0.000000 -0.000003 16.853195
							CHANNELS 3 Xrotation Yrotation Zrotation
							End Site
							{
								OFFSET -0.032013 0.940780 8.161865
							}
						}
					}
				}
			}
		}
	}
}
MOTION
Frames: 9
Frame Time: 0.041667
50.732101 -10.793810 51.327805 6.670972 2.810553 1.689565 3.091180 -0.577394 0.233145 10.188131 -1.138014 0.502329 11.833344 -1.131919 0.515928 40.143559 4.953739 2.118102 0.317477 7.973810 2.334100 -2.944992 -53.648363 -2.947104 -73.542115 -126.206282 -101.601639 -0.000000 -0.000025 0.000007 73.353035 -5.931148 2.715397 -0.000001 0.000002 -3.008363 -5.000239 -7.998778 0.000150 1.229344 67.426330 -0.293509 -68.579068 121.776891 86.851449 -0.000000 0.000000 0.000000 75.942128 3.532373 0.596669 -0.000001 -0.000006 3.000001 -5.000228 7.998712 -0.000165 -101.479399 -165.775986 4.167893 -179.999991 0.000006 -1.273006 72.881513 1.634213 0.535508 -0.000003 0.000004 1.921140 76.555923 6.997235 1.165925 25.456897 -7.352899 -0.000008 -102.939898 172.889464 0.521694 -0.000005 -0.000004 -1.279370 -110.488712 -5.016379 -5.122168 -0.000006 -0.000000 -2.445959 78.675986 -6.062210 -4.111586 25.458227 7.346791 0.000003 
50.726101 -10.761708 51.342701 6.494433 2.820970 1.679942 3.099211 -0.580903 0.234291 10.204257 -1.144963 0.504924 11.849473 -1.138840 0.518607 40.212691 4.983805 2.121301 0.312355 7.980183 2.346407 -2.881755 -53.654995 -2.870703 -73.371907 -126.276373 -101.198152 0.000000 -0.000026 0.000005 73.104771 -6.042345 2.784594 0.000000 0.000008 -3.008359 -5.000240 -7.998778 0.000150 1.197158 67.463370 -0.253282 -68.673809 121.862446 86.894643 -0.000000 0.000001 0.000000 75.735070 3.603589 0.533871 -0.000001 -0.000007 3.000001 -5.000230 7.998712 -0.000163 -101.281829 -165.792651 4.185344 -179.999991 0.000006 -1.273006 72.951912 1.641408 0.529939 -0.000003 0.000005 1.919981 76.500277 6.995848 1.176208 25.456892 -7.352895 -0.000010 -102.754971 172.877853 0.527858 -0.000005 -0.000005 -1.285010 -110.441946 -5.027578 -5.128076 -0.000005 -0.000000 -2.447719 78.642306 -6.066865 -4.096052 25.458229 7.346791 0.000002 
50.740898 -10.718008 51.371101 6.318526 2.831225 1.669144 3.106613 -0.584338 0.234782 10.219087 -1.151819 0.506203 11.864300 -1.145678 0.519967 40.285627 5.022696 2.124101 0.301796 7.982300 2.361402 -2.811842 -53.636451 -2.783399 -73.152904 -126.350508 -100.738262 0.000000 -0.000025 0.000004 72.839419 -6.154371 2.853428 0.000002 0.000004 -3.008361 -5.000239 -7.998782 0.000151 1.142391 67.486668 -0.189388 -68.733068 121.951498 86.905223 -0.000000 0.000001 -0.000002 75.520705 3.674492 0.470539 0.000000 -0.000006 3.000001 -5.000228 7.998713 -0.000165 -101.086089 -165.809522 4.201437 -179.999991 0.000005 -1.274003 73.027823 1.647270 0.522173 -0.000004 0.000005 1.919031 76.438020 6.995324 1.184507 25.456892 -7.352901 -0.000009 -102.571259 172.865490 0.533551 -0.000005 -0.000005 -1.290720 -110.392256 -5.038380 -5.134763 -0.000005 -0.000000 -2.449430 78.605191 -6.071435 -4.080897 25.458231 7.346791 0.000000 
50.731499 -10.670507 51.395702 6.143330 2.841227 1.657395 3.113363 -0.587704 0.234706 10.232613 -1.158599 0.506336 11.877836 -1.152452 0.520181 40.361712 5.069294 2.126373 0.286588 7.980681 2.378591 -2.736818 -53.595176 -2.687406 -72.888487 -126.429151 -100.226011 -0.000000 -0.000023 0.000004 72.558916 -6.267090 2.921762 0.000001 0.000004 -3.008363 -5.000240 -7.998779 0.000150 1.067734 67.497384 -0.104707 -68.761714 122.043009 86.887888 0.000000 0.000001 0.000000 75.299380 3.745202 0.406985 -0.000002 -0.000006 3.000000 -5.000226 7.998712 -0.000166 -100.892406 -165.826434 4.217705 -179.999991 0.000005 -1.275000 73.108248 1.651964 0.512578 -0.000003 0.000004 1.918260 76.370251 6.995605 1.190840 25.456897 -7.352894 -0.000010 -102.388900 172.852472 0.540165 -0.000006 -0.000004 -1.296480 -110.340340 -5.049293 -5.140364 -0.000006 -0.000000 -2.451111 78.565310 -6.075919 -4.065980 25.458229 7.346791 0.000001 
50.754200 -10.646608 51.411003 5.968934 2.850865 1.644911 3.119455 -0.591008 0.234144 10.244839 -1.165296 0.505493 11.890073 -1.159162 0.519418 40.440345 5.122475 2.127990 0.267528 7.975843 2.397500 -2.658296 -53.533920 -2.584966 -72.585882 -126.511837 -99.670239 -0.000000 -0.000024 0.000006 72.265143 -6.380405 2.989566 0.000000 0.000001 -3.008361 -5.000235 -7.998781 0.000151 0.975950 67.496660 -0.002183 -68.760361 122.137292 86.842563 -0.000000 0.000001 0.000002 75.071722 3.815822 0.342916 0.000001 -0.000006 2.999999 -5.000226 7.998712 -0.000167 -100.700942 -165.843263 4.234819 -179.999991 0.000005 -1.275000 73.192218 1.655674 0.501519 -0.000003 0.000005 1.917691 76.297967 6.996612 1.195442 25.456897 -7.352897 -0.000009 -102.207845 172.839030 0.545270 -0.000005 -0.000004 -1.302280 -110.286887 -5.060092 -5.145879 -0.000006 -0.000000 -2.452750 78.523147 -6.080324 -4.051486 25.458227 7.346792 0.000001 
50.753101 -10.617008 51.419502 5.795423 2.860041 1.631882 3.124877 -0.594256 0.233185 10.255669 -1.171908 0.503838 11.900899 -1.165799 0.517844 40.520784 5.181108 2.128868 0.245383 7.968318 2.417644 -2.577862 -53.455253 -2.478290 -72.249871 -126.598963 -99.076566 0.000000 -0.000026 0.000006 71.959759 -6.494213 3.056500 0.000001 0.000002 -3.008360 -5.000237 -7.998782 0.000148 0.869834 67.485664 0.115199 -68.735390 122.233093 86.776044 -0.000000 0.000000 -0.000001 74.838239 3.886329 0.278826 0.000003 -0.000005 3.000002 -5.000230 7.998715 -0.000165 -100.511718 -165.860161 4.250383 -179.999991 0.000005 -1.275997 73.278429 1.658607 0.489387 -0.000004 0.000005 1.917301 76.222165 6.998310 1.198351 25.456897 -7.352898 -0.000008 -102.028416 172.825042 0.550202 -0.000005 -0.000005 -1.308080 -110.232471 -5.070911 -5.149333 -0.000005 -0.000000 -2.454340 78.479399 -6.084691 -4.037276 25.458234 7.346791 0.000002 
50.769901 -10.557807 51.437500 5.622880 2.868644 1.618551 3.129621 -0.597454 0.231910 10.265194 -1.178456 0.501548 11.910429 -1.172372 0.515633 40.602350 5.244076 2.128905 0.220949 7.958630 2.438538 -2.497056 -53.361939 -2.369555 -71.886314 -126.690365 -98.452259 0.000000 -0.000024 0.000004 71.644819 -6.608332 3.122581 0.000001 0.000009 -3.008358 -5.000239 -7.998780 0.000150 0.752187 67.465351 0.244446 -68.685837 122.331079 86.686227 0.000000 0.000002 -0.000001 74.599374 3.956903 0.214427 -0.000001 -0.000004 3.000003 -5.000229 7.998712 -0.000166 -100.325049 -165.876813 4.266957 -179.999991 0.000006 -1.276994 73.366094 1.660909 0.476536 -0.000004 0.000005 1.917091 76.144035 7.000596 1.199576 25.456899 -7.352897 -0.000008 -101.850490 172.810794 0.554502 -0.000005 -0.000005 -1.313870 -110.177843 -5.081230 -5.154676 -0.000006 -0.000000 -2.455870 78.434607 -6.088966 -4.023412 25.458226 7.346790 0.000002 
50.771702 -10.512108 51.469299 5.451378 2.876553 1.605120 3.133672 -0.600606 0.230404 10.273219 -1.184930 0.498785 11.918459 -1.178875 0.512948 40.684561 5.310237 2.127980 0.195024 7.947305 2.459697 -2.417409 -53.256450 -2.260904 -71.501104 -126.785810 -97.804300 0.000000 -0.000023 0.000005 71.321983 -6.722591 3.187397 -0.000003 0.000007 -3.008359 -5.000241 -7.998781 0.000150 0.625834 67.436992 0.382556 -68.618020 122.430075 86.579956 0.000000 0.000001 0.000000 74.355659 4.027514 0.150013 0.000000 -0.000006 3.000001 -5.000227 7.998713 -0.000166 -100.140976 -165.893342 4.283028 -179.999991 0.000005 -1.276994 73.454026 1.662787 0.463359 -0.000004 0.000005 1.917051 76.064566 7.003409 1.199255 25.456899 -7.352898 -0.000008 -101.674408 172.796245 0.557919 -0.000005 -0.000004 -1.319620 -110.123502 -5.091472 -5.159008 -0.000005 -0.000000 -2.457338 78.389466 -6.093166 -4.009870 25.458227 7.346791 0.000001 
50.777401 -10.472507 51.486801 5.281016 2.883658 1.591799 3.137011 -0.603720 0.228754 10.279945 -1.191350 0.495728 11.925191 -1.185322 0.509966 40.766534 5.378478 2.126042 0.168380 7.934874 2.480630 -2.340416 -53.141553 -2.154431 -71.097556 -126.885749 -97.136737 -0.000001 -0.000023 0.000006 70.993096 -6.836871 3.250954 -0.000000 0.000005 -3.008361 -5.000239 -7.998779 0.000149 0.493549 67.401748 0.526547 -68.533715 122.529892 86.458351 0.000000 0.000002 0.000001 74.107628 4.098286 0.085494 -0.000002 -0.000006 3.000001 -5.000228 7.998712 -0.000165 -99.959627 -165.909598 4.298377 -179.999991 0.000005 -1.278005 73.541036 1.664460 0.450213 -0.000004 0.000004 1.917172 75.984652 7.006758 1.197429 25.456897 -7.352897 -0.000009 -101.500211 172.781520 0.560833 -0.000005 -0.000004 -1.325310 -110.070308 -5.101167 -5.163287 -0.000006 0.000000 -2.458751 78.344442 -6.097341 -3.996618 25.458229 7.346792 -0.000000 
